<?xml version="1.0" encoding="UTF-8"?>
<svg xmlns="http://www.w3.org/2000/svg" viewBox="52 52 920 920" role="img" aria-label="Apollo XR">
  <rect x="72" y="72" width="880" height="880" rx="206" fill="#111820"/>
  <path d="M292 406C404 258 632 236 734 324" fill="none" stroke="#F8B400" stroke-width="58" stroke-linecap="round"/>
  <circle cx="776" cy="342" r="56" fill="#F8B400"/>
  <path d="M286 642C336 828 610 846 758 652" fill="none" stroke="#1677FF" stroke-width="66" stroke-linecap="round"/>
  <rect x="220" y="476" width="54" height="116" rx="25" fill="#FFFFFF"/>
  <rect x="750" y="476" width="54" height="116" rx="25" fill="#FFFFFF"/>
  <path d="M256 446C326 414 426 398 512 398S698 414 768 446V566C768 620 728 650 672 670L612 692C574 706 552 687 536 650L522 616C518 606 506 606 502 616L488 650C472 687 450 706 412 692L352 670C296 650 256 620 256 566Z" fill="#FFFFFF"/>
  <circle cx="798" cy="798" r="120" fill="#22C55E"/>
  <path d="M766 740V856L862 798Z" fill="#FFFFFF"/>
</svg>
